<svg xmlns="http://www.w3.org/2000/svg" viewBox="0 0 341.31 61.64"><defs><style>.cls-1,.cls-3{fill:#3a8891;}.cls-2{fill:#fff;}.cls-3{font-size:30px;font-family:Times-Bold, Times;font-weight:700;}</style></defs><g id="OBJECTS"><path class="cls-1" d="M50.3,39.29a.94.94,0,0,0-1.49.59c-.27.84.34,1.67.8,2.36,1.37,2,2.6,3.56,1.68,6.17A11.93,11.93,0,0,1,43,55.48c-2.31.54-4.32.89-6.52-.25-.23-.12-1.06-.49-1-.79.17-.66,2.26-.75,2.81-.94,2.29-.77,3.62-3.89,5-5.69.5-.68,1.27-2.61-.22-1.54A16.89,16.89,0,0,0,40.57,49a19.18,19.18,0,0,1-2.75,2.73c-1.72,1.34-3.08,1.7-5.06.94a13.37,13.37,0,0,1-5.95-4.25c3.55-.48,7.68.68,10.7-1.84,1.54-1.28,3.32-2.58,4.32-4.37.49-.86.34-1.57-.71-1.17A8.7,8.7,0,0,0,39,42.58c-1,.82-2,1.61-3,2.39a11.31,11.31,0,0,1-5.24,2.13c-1.64.28-3.72.64-5.12-.36a15.52,15.52,0,0,1-3.73-4c-.63-.94-1.49-2.47-.89-3.61,1.07.32,2,1,3.13,1.28a10.82,10.82,0,0,0,4.72.5,27.8,27.8,0,0,0,5.85-1.77c1.18-.49,2.89-.71,3.91-1.48.49-.38.79-.71.17-1s-1.44,0-1.93.15a24.69,24.69,0,0,1-3.31.49c-2.4.19-4.8.41-7.18.74a9.94,9.94,0,0,1-3.08,0c-.9-.16-2-.2-2.66-1a2.91,2.91,0,0,1-.52-1.24c-.3-1.37-.19-2.79-.5-4.14-.13-.57-.61-2.35.27-2.58.21-.06.58.26.78.36a15.33,15.33,0,0,0,2.8.93,39.67,39.67,0,0,0,5.76.77,29.45,29.45,0,0,0,5.31.12c.78-.05,2.4.1,3.07-.37.91-.66.19-1.36-.62-1.58-4.09-1.15-8.43-.92-12.54-1.87-.92-.22-1.89-.39-2.79-.62s-1.68-.43-1.85-1.35c-.43-2.33.21-5,.84-7.19a4.87,4.87,0,0,1,.83-2.06c.39.24.5.85.76,1.22a7.74,7.74,0,0,0,1.92,1.64,17.7,17.7,0,0,0,5.18,2.8c1.1.38,2.21.86,3.35,1.14.58.15,2.57.41,1.9-.75-.31-.54-1.7-1.1-2.25-1.39-1.11-.59-2.18-1.27-3.3-1.86-1.82-1-3.26-1.49-4.57-3.15-1.13-1.44-1.25-2.22-.14-3.7.62-.83,1.52-1.35,2.18-2.13A9.66,9.66,0,0,0,28,7.44a1.14,1.14,0,0,1,.36-.57c.72-.53,2,.37,2.63.7a12,12,0,0,1,2.2,1.2c1.81,1.54,2.05,4.58,3.25,6.52.32.52,1.69,2.77,2.46,1.86a6.06,6.06,0,0,0,.19-2.3,11.6,11.6,0,0,0-.77-3.29,8.54,8.54,0,0,0-2.85-4,24.35,24.35,0,0,0-2.68-1.4c1.13-.61,3.24-.53,4.51-.45,1.7.1,3.15.28,4,1.77A29,29,0,0,1,44,15.1c.33,1.24.49,2.48.73,3.73.09.46.08,1,.58,1.23,1.47-1.52.69-4.9.45-6.74a12.58,12.58,0,0,0-.86-3.67A20.22,20.22,0,0,1,43.69,7.2c1.73-.55,3.94.24,5.55.85A8.14,8.14,0,0,1,51.7,9.14c.6.51.58.83.67,1.71a30.1,30.1,0,0,1-1.31,11.34c-.31,1.11-2.17,5-.92,6,.73-.42,1.06-1.59,1.33-2.33a46.56,46.56,0,0,0,1.47-6c.39-1.72.81-3.5,1.36-5.17A16.15,16.15,0,0,1,55,12.2c1.73.4,3,1.68,4.44,2.68.67.47,2.19,1.51,2.28,2.46.06.53-.5,1.39-.71,1.87a26.73,26.73,0,0,1-1.62,3.26,58.08,58.08,0,0,1-4.76,6.88c-.26.33-2.1,2-1.56,2.61s2-1.35,2.38-1.66a24,24,0,0,0,4.46-5.71,19,19,0,0,1,2.53-3.79,10.65,10.65,0,0,1,2.36,3.25c.6,1.12,1.18,2.44.19,3.4a26,26,0,0,1-2.79,2.23c-1.23.89-2.29,2-3.61,2.75S55.17,34,54.31,35.32c.69.52,2-.37,2.72-.64a24.13,24.13,0,0,0,4.23-2.17c.5-.33,2.29-2.49,2.9-2.24.76.3.31,1.92.19,2.47a11.69,11.69,0,0,1-1.28,3.42c-.31.54-.67,1.05-1,1.6-.46.88-.74,1.83-1.19,2.72-1.27,2.52-4.84,4-7.05,1.73A17.08,17.08,0,0,0,50.3,39.29Z"/><path class="cls-2" d="M60.38,36.83A8.59,8.59,0,0,1,57.8,38a8.63,8.63,0,0,1-3,0q-3.12-.42-6.23-1a17.4,17.4,0,0,0,6.09-3.41c1.21-.94,2.41-1.89,3.54-2.92a19.42,19.42,0,0,0,1.65-1.62c.27-.3.52-.61.77-.93a4.67,4.67,0,0,0,.51-.93c0-.09-.07-.18-.14-.12-1.11,1-2.08,2.08-3.2,3.05S55.46,32.06,54.28,33c-2.05,1.54-4.24,3.11-6.82,3.52l-.86-1a9.09,9.09,0,0,0,3-2,22.55,22.55,0,0,0,2.81-3.36,32.18,32.18,0,0,0,3.83-7.89c.26-.77.49-1.54.7-2.32a8.9,8.9,0,0,0,.43-2.39c0-.14-.19-.13-.24,0a15.16,15.16,0,0,0-1,2.56c-.28.82-.55,1.64-.86,2.44A39.87,39.87,0,0,1,53,27.38,24.58,24.58,0,0,1,50,31.76a10.08,10.08,0,0,1-4,3c-.61-.72-1.2-1.45-1.77-2.21-.4-.52-.79-1.06-1.16-1.61a16,16,0,0,0,2.35-3.15,28,28,0,0,0,2.06-3.95,27.43,27.43,0,0,0,2.12-8.5,19.71,19.71,0,0,0,0-2.43c0-.43,0-.85-.09-1.28s-.18-.83-.24-1.26a.17.17,0,0,0-.34,0c0,.36-.06.73-.07,1.09s0,.72,0,1.08c0,.72-.07,1.44-.13,2.16a32,32,0,0,1-.63,4.12A27.45,27.45,0,0,1,45,26.73c-.41.7-.86,1.38-1.34,2-.35.49-.74.95-1.1,1.44-.22-.35-.43-.71-.63-1.07-.69-1.27-1.26-2.59-1.85-3.9a8.09,8.09,0,0,0,.77-1.7,19.91,19.91,0,0,0,.65-2,19.22,19.22,0,0,0,.57-4.2,20,20,0,0,0-.33-4.16,19.34,19.34,0,0,0-.51-2,5.12,5.12,0,0,0-.81-1.85.19.19,0,0,0-.33.14,9.67,9.67,0,0,0,.53,1.87,19,19,0,0,1,.69,6.05,19.6,19.6,0,0,1-.61,3.88,18.6,18.6,0,0,1-.61,1.92c-.13.34-.3.68-.46,1a24.83,24.83,0,0,0-4.22-6.51,36.05,36.05,0,0,0-3.57-3.3Q30.94,13.69,30,13c-.7-.51-1.42-.94-2.14-1.42a.14.14,0,0,0-.17.22c.55.46,1,1,1.61,1.42s1.12.9,1.66,1.36a38.75,38.75,0,0,1,3.27,3,22.23,22.23,0,0,1,2.65,3.31,25.76,25.76,0,0,1,2,3.91L39,25a22.32,22.32,0,0,1-7.86,0,22.75,22.75,0,0,1-7.57-2.95c-.24-.15-.52.17-.28.35A18.24,18.24,0,0,0,31,25.87a18.55,18.55,0,0,0,8.32-.19,44.66,44.66,0,0,0,2.6,5.23,29.87,29.87,0,0,1-9,2.73,30.47,30.47,0,0,1-4.77.28,39.63,39.63,0,0,1-4.87-.39c-.26,0-.3.34-.05.4a20.65,20.65,0,0,0,3.83.69,29.49,29.49,0,0,0,3.76.05,28.27,28.27,0,0,0,7.51-1.43,26,26,0,0,0,4-1.67c.16.25.33.49.5.73.7,1,1.45,1.94,2.22,2.87a58.67,58.67,0,0,1-8.68,5.77,20.6,20.6,0,0,1-4.68,2.19,11.2,11.2,0,0,1-2.44.4,14.77,14.77,0,0,1-2.66,0c-.14,0-.21.2-.07.24a9.15,9.15,0,0,0,1.84.45,9.84,9.84,0,0,0,2,0A12.86,12.86,0,0,0,34.22,43,42.13,42.13,0,0,0,37.94,41c1.25-.72,2.5-1.46,3.71-2.24a37.19,37.19,0,0,0,3.92-2.87l1.37,1.59a38.29,38.29,0,0,1-5.74,7.27,34.54,34.54,0,0,1-3.46,3.49,10.65,10.65,0,0,1-1.94,1.24,5.68,5.68,0,0,1-2.11.68c-.11,0-.09.18,0,.18A6.89,6.89,0,0,0,35.88,50a7.23,7.23,0,0,0,2-1.09,27.14,27.14,0,0,0,3.67-3.52,50.61,50.61,0,0,0,5.22-6.1c-.37,2.28-.41,4.6-.67,6.9a12.8,12.8,0,0,1-1.17,4.63,9.63,9.63,0,0,1-3.22,3.19c-.19.14,0,.41.21.29a11.18,11.18,0,0,0,3.37-2.85A10.94,10.94,0,0,0,46.82,47c.46-2.82.39-5.72,1-8.51l0,0c1,1.13,1.92,2.28,2.79,3.49.45.62.88,1.26,1.28,1.92a21.72,21.72,0,0,0,1.17,2c.25.34.94.13.82-.34A12,12,0,0,0,52,42.07c-.78-1.12-1.62-2.18-2.5-3.23l-.65-.76c2.13.28,4.25.63,6.38.81a6.11,6.11,0,0,0,5.38-1.82C60.74,36.91,60.54,36.74,60.38,36.83Z"/><text class="cls-3" transform="translate(74.89 39.58)">MonsteraShop</text></g></svg>